<svg width="189" height="35" viewBox="0 0 189 35" fill="none" xmlns="http://www.w3.org/2000/svg">
<path d="M14.2868 10.1758V24.8239H12.1241V17.111H3.84368V24.8239H1.61908V10.1758H3.78188V15.1017H12.1241V10.1758H14.2868Z" fill="#828282"/>
<path d="M19.5394 24.8242C18.4889 24.8242 17.6855 24.5649 17.1294 23.9168C16.5115 23.3334 16.2025 22.5557 16.2025 21.5834V20.8057C16.2025 19.8334 16.5115 19.0557 17.1294 18.4723C17.6855 17.889 18.5507 17.5649 19.5394 17.5649H25.2244V17.5001C25.2244 16.3334 24.6064 15.7501 23.3706 15.7501H17.0676V13.8057H23.3706C24.6682 13.8057 25.6569 14.1946 26.3984 14.8427C27.0782 15.5557 27.4489 16.5279 27.4489 17.7594V21.6482C27.4489 22.6205 27.14 23.3982 26.4602 23.9816C25.9041 24.5001 25.039 24.7594 23.9885 24.7594H19.5394V24.8242ZM23.5559 19.5094H20.0955C18.9832 19.5094 18.4271 20.0279 18.4271 21.0001V21.389C18.4271 22.3612 18.9832 22.8797 20.0955 22.8797H23.5559C24.6682 22.8797 25.2862 22.426 25.2862 21.389V21.0001C25.2862 20.0279 24.6682 19.5094 23.5559 19.5094Z" fill="#828282"/>
<path d="M33.8754 13.8057H36.0382C37.3976 13.8057 38.4481 14.1946 39.2514 15.0371C39.993 15.8797 40.4255 17.0464 40.4255 18.4723V24.7594H38.2627V18.5371C38.2627 17.6297 38.0774 16.9168 37.7684 16.5279C37.3358 16.0094 36.7179 15.6853 35.9146 15.6853H34.0608C33.2575 15.6853 32.7013 15.9445 32.207 16.5279C31.898 16.9168 31.7126 17.6297 31.7126 18.5371V24.7594H29.5498V18.4723C29.5498 16.9816 29.9206 15.8797 30.7239 15.0371C31.4036 14.1946 32.5159 13.8057 33.8754 13.8057Z" fill="#828282"/>
<path d="M50.4979 23.3334C49.6946 24.3057 48.7677 24.8242 47.5936 24.8242H46.2342C44.9983 24.8242 44.0714 24.4353 43.3299 23.5927C42.6501 22.8149 42.2794 21.7779 42.2794 20.4168V13.8057H44.4422V20.4168C44.4422 21.1945 44.6275 21.8427 44.9365 22.1668C45.3073 22.5557 45.8016 22.8149 46.4196 22.8149H47.3465C47.9644 22.8149 48.4587 22.6205 48.8295 22.1668C49.1385 21.7779 49.3239 21.1945 49.3239 20.4168V13.8057H51.4866V20.4168C51.4866 21.1945 51.672 21.8427 51.981 22.1668C52.3517 22.5557 52.8461 22.8149 53.464 22.8149H54.391C55.009 22.8149 55.503 22.6205 55.874 22.1668C56.183 21.7779 56.368 21.1945 56.368 20.4168V13.8057H58.531V20.4168C58.531 21.7779 58.16 22.8797 57.481 23.5927C56.739 24.3705 55.812 24.8242 54.576 24.8242H53.217C52.2282 24.8242 51.2395 24.3057 50.4979 23.3334Z" fill="#828282"/>
<path d="M65.081 15.7502C64.278 15.7502 63.722 16.0095 63.227 16.5928C62.918 16.9817 62.733 17.6946 62.733 18.602V24.8243H60.57V10.1113H62.733V14.4539C63.351 14.0002 64.092 13.8058 64.896 13.8058H67.059C68.418 13.8058 69.468 14.1946 70.272 15.0372C71.013 15.8798 71.446 17.0465 71.446 18.4724V24.7594H69.283V18.5372C69.283 17.6298 69.098 16.9169 68.789 16.528C68.356 16.0095 67.738 15.6854 66.935 15.6854H65.081V15.7502Z" fill="#828282"/>
<path d="M76.637 24.8242C75.586 24.8242 74.783 24.5649 74.227 23.9168C73.609 23.3334 73.3 22.5557 73.3 21.5834V20.8057C73.3 19.8334 73.609 19.0557 74.227 18.4723C74.783 17.889 75.648 17.5649 76.637 17.5649H82.322V17.5001C82.322 16.3334 81.704 15.7501 80.468 15.7501H74.103V13.8057H80.406C81.704 13.8057 82.692 14.1946 83.434 14.8427C84.114 15.5557 84.484 16.5279 84.484 17.7594V21.6482C84.484 22.6205 84.175 23.3982 83.496 23.9816C82.94 24.5001 82.074 24.7594 81.024 24.7594H76.637V24.8242ZM80.591 19.5094H77.131C76.019 19.5094 75.463 20.0279 75.463 21.0001V21.389C75.463 22.3612 76.019 22.8797 77.131 22.8797H80.591C81.704 22.8797 82.322 22.426 82.322 21.389V21.0001C82.322 20.0279 81.765 19.5094 80.591 19.5094Z" fill="#828282"/>
<path d="M102.157 10.1758V12.1851H94.619C93.259 12.1851 92.518 12.7684 92.518 13.8054V14.7777C92.518 15.8795 93.197 16.398 94.557 16.398H98.635C99.995 16.398 100.983 16.7221 101.725 17.3703C102.466 18.0184 102.837 18.9258 102.837 19.9628V21.3239C102.837 22.361 102.466 23.2684 101.725 23.9165C101.045 24.5647 99.995 24.8888 98.635 24.8888H90.849V22.8795H98.512C99.933 22.8795 100.613 22.361 100.613 21.2591V20.0925C100.613 18.9906 99.933 18.4721 98.512 18.4721H94.433C93.074 18.4721 92.023 18.148 91.343 17.4999C90.602 16.8517 90.293 16.0091 90.293 14.9073V13.7406C90.293 12.7036 90.664 11.7962 91.343 11.148C92.023 10.4999 93.074 10.1758 94.433 10.1758H102.157Z" fill="#828282"/>
<path d="M112.168 24.8242H108.955C107.657 24.8242 106.606 24.4353 105.865 23.6575C105.123 22.8797 104.753 21.7779 104.753 20.352V18.2779C104.753 16.852 105.123 15.7501 105.865 14.9723C106.606 14.1946 107.595 13.8057 108.955 13.8057H112.168C113.466 13.8057 114.516 14.2594 115.258 14.9723C115.999 15.7501 116.37 16.852 116.37 18.2779V20.352C116.37 21.7779 115.999 22.8797 115.258 23.6575C114.516 24.4353 113.466 24.8242 112.168 24.8242ZM111.983 22.8797C112.724 22.8797 113.342 22.6205 113.713 22.102C114.022 21.6482 114.145 21.0649 114.145 20.2223V18.4075C114.145 17.5649 113.96 16.9168 113.713 16.5279C113.342 16.0094 112.786 15.7501 111.983 15.7501H109.078C108.337 15.7501 107.719 16.0094 107.348 16.5279C107.039 16.9816 106.915 17.5649 106.915 18.4075V20.2223C106.915 21.0649 107.039 21.6482 107.348 22.102C107.719 22.6205 108.275 22.8797 109.078 22.8797H111.983Z" fill="#828282"/>
<path d="M118.471 24.8243V10.1113H120.696V24.8243H118.471Z" fill="#828282"/>
<path d="M127.184 24.8242C125.824 24.8242 124.774 24.4353 123.971 23.5927C123.167 22.8149 122.797 21.6482 122.797 20.1575V13.8057H125.021V20.0279C125.021 20.9353 125.145 21.6482 125.515 22.0371C125.948 22.5557 126.566 22.8149 127.369 22.8149H129.223C130.026 22.8149 130.644 22.5557 131.077 22.0371C131.386 21.5834 131.571 20.9353 131.571 20.0279V13.8057H133.796V20.1575C133.796 21.6482 133.363 22.8149 132.622 23.5927C131.818 24.4353 130.768 24.8242 129.408 24.8242H127.184Z" fill="#828282"/>
<path d="M140.655 13.8058H143.93V15.7502H140.655V24.8891H138.43V15.7502H135.155V13.8058H138.43V11.3428H140.655V13.8058Z" fill="#828282"/>
<path d="M148.07 11.6017C148.07 12.0554 147.947 12.3795 147.638 12.6388C147.329 12.898 147.02 13.0277 146.587 13.0277C146.154 13.0277 145.846 12.898 145.598 12.6388C145.289 12.3795 145.166 12.0554 145.166 11.6017C145.166 11.148 145.289 10.824 145.598 10.5647C145.846 10.3054 146.154 10.1758 146.587 10.1758C147.02 10.1758 147.329 10.3054 147.638 10.5647C147.947 10.824 148.07 11.148 148.07 11.6017ZM145.537 13.8054H147.761V24.8888H145.537V13.8054Z" fill="#828282"/>
<path d="M157.277 24.8242H154.064C152.766 24.8242 151.716 24.4353 150.974 23.6575C150.233 22.8797 149.862 21.7779 149.862 20.352V18.2779C149.862 16.852 150.233 15.7501 150.974 14.9723C151.716 14.1946 152.705 13.8057 154.064 13.8057H157.277C158.575 13.8057 159.625 14.2594 160.367 14.9723C161.108 15.7501 161.479 16.852 161.479 18.2779V20.352C161.479 21.7779 161.108 22.8797 160.367 23.6575C159.625 24.4353 158.637 24.8242 157.277 24.8242ZM157.154 22.8797C157.895 22.8797 158.513 22.6205 158.884 22.102C159.193 21.6482 159.316 21.0649 159.316 20.2223V18.4075C159.316 17.5649 159.131 16.9168 158.884 16.5279C158.513 16.0094 157.957 15.7501 157.154 15.7501H154.249C153.508 15.7501 152.89 16.0094 152.519 16.5279C152.21 16.9816 152.087 17.5649 152.087 18.4075V20.2223C152.087 21.0649 152.21 21.6482 152.519 22.102C152.89 22.6205 153.446 22.8797 154.249 22.8797H157.154Z" fill="#828282"/>
<path d="M167.782 13.8057H169.945C171.305 13.8057 172.355 14.2594 173.158 15.0371C173.9 15.8797 174.332 17.0464 174.332 18.5371V24.889H172.17V18.6668C172.17 17.7594 171.984 17.0464 171.675 16.6575C171.243 16.139 170.625 15.8149 169.821 15.8149H167.968C167.164 15.8149 166.608 16.0742 166.114 16.6575C165.805 17.1112 165.619 17.7594 165.619 18.6668V24.889H163.395V18.5371C163.395 17.0464 163.766 15.8797 164.569 15.0371C165.372 14.2594 166.423 13.8057 167.782 13.8057Z" fill="#828282"/>
<path d="M183.354 18.3427C184.528 18.3427 185.393 18.5371 185.95 18.926C186.629 19.4445 187 20.1575 187 21.1945V22.0371C187 23.0742 186.629 23.852 185.95 24.3057C185.393 24.6945 184.528 24.889 183.354 24.889H176.372V22.8797H183.354C184.281 22.8797 184.776 22.5557 184.776 21.8427V21.389C184.776 20.676 184.281 20.352 183.354 20.352H179.708C178.534 20.352 177.669 20.1575 177.113 19.7686C176.433 19.3149 176.063 18.5371 176.063 17.5001V16.6575C176.063 15.6205 176.372 14.8427 177.113 14.389C177.669 14.0001 178.534 13.8057 179.708 13.8057H186.382V15.8149H179.708C178.782 15.8149 178.287 16.2038 178.287 16.852V17.3057C178.287 18.0186 178.72 18.3427 179.708 18.3427H183.354Z" fill="#828282"/>
</svg>
