<svg width="18" height="18" viewBox="0 0 18 18" fill="none" xmlns="http://www.w3.org/2000/svg">
<g clip-path="url(#clip0_57_102)">
<path d="M6.42857 2.57132H11.5714V1.28561H6.42857V2.57132ZM18 8.9999V13.8213C18 14.2633 17.8426 14.6416 17.5279 14.9564C17.2132 15.2711 16.8348 15.4285 16.3929 15.4285H1.60714C1.16518 15.4285 0.78683 15.2711 0.472098 14.9564C0.157366 14.6416 0 14.2633 0 13.8213V8.9999H6.75V10.607C6.75 10.7811 6.81362 10.9318 6.94085 11.059C7.06808 11.1863 7.21875 11.2499 7.39286 11.2499H10.6071C10.7812 11.2499 10.9319 11.1863 11.0592 11.059C11.1864 10.9318 11.25 10.7811 11.25 10.607V8.9999H18ZM10.2857 8.9999V10.2856H7.71429V8.9999H10.2857ZM18 4.17847V8.03561H0V4.17847C0 3.7365 0.157366 3.35815 0.472098 3.04342C0.78683 2.72869 1.16518 2.57132 1.60714 2.57132H5.14286V0.964181C5.14286 0.696324 5.23661 0.468646 5.42411 0.281146C5.61161 0.0936456 5.83929 -0.000104427 6.10714 -0.000104427H11.8929C12.1607 -0.000104427 12.3884 0.0936456 12.5759 0.281146C12.7634 0.468646 12.8571 0.696324 12.8571 0.964181V2.57132H16.3929C16.8348 2.57132 17.2132 2.72869 17.5279 3.04342C17.8426 3.35815 18 3.7365 18 4.17847Z" fill="#FF8342"/>
</g>
<defs>
<clipPath id="clip0_57_102">
<rect width="18" height="18" fill="white" transform="matrix(1 0 0 -1 0 18)"/>
</clipPath>
</defs>
</svg>
