<svg width="18" height="18" viewBox="0 0 18 18" fill="none" xmlns="http://www.w3.org/2000/svg">
<g clip-path="url(#clip0_57_101)">
<path d="M5.50446 0.71317C5.50446 0.71317 5.78237 0.594308 6.33817 0.356585C6.89397 0.118862 7.78125 2.38419e-07 9 2.38419e-07C10.2187 2.38419e-07 11.3839 0.237723 12.4955 0.71317C13.6071 1.18862 14.5647 1.82813 15.3683 2.6317C16.1719 3.43527 16.8114 4.39286 17.2868 5.50446C17.7623 6.61607 18 7.78125 18 9C18 10.2121 17.764 11.3739 17.2919 12.4855C16.8198 13.5971 16.1819 14.5547 15.3783 15.3583C14.5748 16.1618 13.6172 16.803 12.5056 17.2818C11.394 17.7606 10.2254 18 9 18C7.77455 18 6.60603 17.7623 5.49442 17.2868C4.38281 16.8114 3.4269 16.1702 2.62667 15.3633C1.82645 14.5564 1.18862 13.5988 0.71317 12.4905C0.237723 11.3823 0 10.2188 0 9C0 7.78125 0.237723 6.61607 0.71317 5.50446C1.18862 4.39286 1.82812 3.43527 2.6317 2.6317C3.43527 1.82813 4.39286 1.18862 5.50446 0.71317ZM15.2176 13.5703C16.2154 12.1975 16.7143 10.6741 16.7143 9C16.7143 7.95536 16.51 6.95759 16.1016 6.0067C15.6931 5.0558 15.144 4.23549 14.4542 3.54576C13.7645 2.85603 12.9442 2.30692 11.9933 1.89844C11.0424 1.48996 10.0446 1.28571 9 1.28571C7.95536 1.28571 6.95759 1.48996 6.0067 1.89844C5.0558 2.30692 4.23549 2.85603 3.54576 3.54576C2.85603 4.23549 2.30692 5.0558 1.89844 6.0067C1.48996 6.95759 1.28571 7.95536 1.28571 9C1.28571 10.6741 1.7846 12.1975 2.78237 13.5703C3.22433 11.3806 4.24888 10.2857 5.85603 10.2857C6.73326 11.1429 7.78125 11.5714 9 11.5714C10.2187 11.5714 11.2667 11.1429 12.144 10.2857C13.7511 10.2857 14.7757 11.3806 15.2176 13.5703ZM11.7271 9.79855C11.7271 9.79855 11.9155 9.61021 12.2921 9.23354C12.6688 8.85686 12.8571 8.13616 12.8571 7.07143C12.8571 6.0067 12.4805 5.09766 11.7271 4.34431C10.9738 3.59096 10.0647 3.21429 9 3.21429C7.93527 3.21429 7.02623 3.59096 6.27288 4.34431C5.51953 5.09766 5.14286 6.0067 5.14286 7.07143C5.14286 8.13616 5.51953 9.0452 6.27288 9.79855C7.02623 10.5519 7.93527 10.9286 9 10.9286C10.0647 10.9286 10.9738 10.5519 11.7271 9.79855Z" fill="#FF8342"/>
</g>
<defs>
<clipPath id="clip0_57_101">
<rect width="18" height="18" fill="white" transform="matrix(1 0 0 -1 0 18)"/>
</clipPath>
</defs>
</svg>
