<svg width="160" height="48" viewBox="0 0 160 48" fill="none" xmlns="http://www.w3.org/2000/svg">
<path d="M18.7 24.6C18 18.6 24.3 13.8 32.7 13.9C41.1 14 48.4 18.9 49.1 24.8C49.8 30.8 43.5 35.6 35.1 35.5C26.7 35.5 19.4 30.6 18.7 24.6ZM50.7 26.4C49.9 19 41.5 12.9 31.8 12.8C22.1 12.7 14.9 18.7 15.7 26.1C16.5 33.5 24.9 39.6 34.6 39.7C44.2 39.8 51.4 33.8 50.7 26.4Z" fill="#FBB584"/>
<path d="M36.1 39.9C31.3 44.9 23.7 45.3 19.1 40.8C14.4 36.3 14.5 28.7 19.3 23.7C24.1 18.7 31.7 18.3 36.4 22.8C40.9 27.3 40.9 34.9 36.1 39.9ZM18.5 23.6C13 29.4 12.9 38.3 18.3 43.5C23.7 48.7 32.6 48.2 38.1 42.4C43.6 36.6 43.7 27.7 38.3 22.6C32.9 17.3 24 17.8 18.5 23.6Z" fill="#F89B6C"/>
<path d="M19 4.99997C28.9 1.29997 38.7 4.99997 40.8 13.4C43 21.7 36.7 31.5 26.8 35.2C17 38.8 7.2 35.1 5 26.8C2.8 18.4 9.1 8.69997 19 4.99997ZM9.8 8.09997C-0.499994 16.3 -3.1 28 4 34.4C11 40.8 25.1 39.4 35.3 31.3C45.5 23.2 48.2 11.4 41.1 4.99997C34.1 -1.40003 20.1 -3.09944e-05 9.8 8.09997Z" fill="#F37321"/>
<path d="M69.1 19.5H57.6V17.7H69.1V19.5ZM63.4 27.6C61.9 27.6 60.7 27.2 59.8 26.5C58.9 25.8 58.4 24.9 58.4 23.9C58.4 22.9 58.9 22 59.8 21.3C60.7 20.6 61.9 20.2 63.4 20.2C64.9 20.2 66 20.6 67 21.3C67.9 22.1 68.4 22.9 68.4 23.9C68.4 24.9 67.9 25.8 67 26.5C66 27.2 64.8 27.6 63.4 27.6ZM64.2 31.9H74.2V33.9H63.6C61.3 33.9 60.2 32.8 60.2 30.7V28.6H62.8V30.4C62.8 31.4 63.2 31.9 64.2 31.9ZM60.4 15.1H66.3V17H60.4V15.1ZM63.4 25.8C64.1 25.8 64.6 25.6 65.1 25.2C65.6 24.8 65.8 24.4 65.8 23.8C65.8 23.3 65.6 22.8 65.1 22.4C64.6 22 64 21.8 63.4 21.8C62.7 21.8 62.2 22 61.7 22.4C61.2 22.8 61 23.2 61 23.8C61 24.4 61.2 24.8 61.7 25.2C62.1 25.6 62.7 25.8 63.4 25.8ZM74.1 20.2H76.8V22.2H74.1V28.7H71.5V15.5H74.1V20.2Z" fill="white"/>
<path d="M83.5 27.5C82.6 27.3 81.8 27 81.2 26.5C80.3 25.8 79.9 24.9 79.9 23.9C79.9 22.9 80.4 22 81.3 21.3C82.2 20.6 83.4 20.2 84.9 20.2C86.4 20.2 87.5 20.6 88.5 21.3C89.4 22.1 89.9 22.9 89.9 23.9C89.9 24.9 89.4 25.8 88.6 26.5C88 27 87.2 27.4 86.3 27.5V29.4H89.2C91.8 29.4 93.1 28.4 93.1 26.4V15.4H95.7V21.6H98.4V23.6H95.7V33.8H93.1V30.3C92.3 31 91.2 31.3 89.7 31.3H78.5V29.3H83.5V27.5ZM90.4 19.5H78.9V17.7H90.4V19.5ZM81.8 15.1H87.7V17H81.8V15.1ZM84.7 25.8C85.4 25.8 85.9 25.6 86.4 25.2C86.9 24.8 87.1 24.4 87.1 23.8C87.1 23.3 86.9 22.8 86.4 22.4C85.9 22 85.3 21.8 84.7 21.8C84 21.8 83.5 22 83 22.4C82.5 22.8 82.3 23.2 82.3 23.8C82.3 24.4 82.5 24.8 83 25.2C83.5 25.6 84 25.8 84.7 25.8Z" fill="white"/>
<path d="M110.4 21.2V23.2H118.5V25.1H99.7V23.2H107.8V21.2H110.4ZM110.4 15.6C110.4 16.9 111.1 18 112.6 18.9C113.9 19.7 115.5 20.2 117.2 20.2V22C115.1 22 113.1 21.5 111.2 20.5C110.3 20.1 109.7 19.6 109.2 19C108.7 19.6 108 20.1 107.1 20.5C105.2 21.5 103.2 22 101.1 22V20.1C102.9 20.1 104.4 19.6 105.7 18.8C107.1 17.9 107.9 16.8 107.9 15.5V15.4H110.5L110.4 15.6ZM101.9 30.8V29H113.6V28H101.9V26.2H115.6C115.9 26.2 116.1 26.4 116.1 26.7V30.8H104.4V31C104.4 31.6 104.8 31.9 105.6 31.9H116.2V33.8H105.3C103.1 33.8 101.9 32.8 101.9 30.8Z" fill="white"/>
<path d="M139.6 28.7H131.5V33.7999H128.9V28.7H120.8V26.7H139.6V28.7ZM122.8 22.2V19.3H134.8V17.6H122.8V15.7H136.4C137 15.7 137.4 16 137.4 16.7V21.3H125.4V22C125.4 22.7 125.8 23 126.6 23H137.7V25H126.2C123.9 25 122.8 24.1 122.8 22.2Z" fill="white"/>
<path d="M149 16.9C149 19.5 149.6 21.5 150.8 22.9C151.7 24 152.7 24.7 153.8 25.1V27.1C152.1 26.8 150.6 26 149.2 24.6C148.6 24 148.1 23.4 147.7 22.7C147.3 23.4 146.8 24.1 146.2 24.6C144.8 26 143.2 26.9 141.6 27.1V25.1C142.6 24.8 143.7 24 144.6 22.9C145.8 21.5 146.4 19.5 146.4 16.9V15.7H148.9V16.9H149ZM149.6 31.8H159.6V33.8H149C146.7 33.8 145.6 32.7 145.6 30.6V27.7H148.2V30.2C148.1 31.3 148.6 31.8 149.6 31.8ZM156.8 15.5H159.4V28.7H156.8V23.4H152.2V21.4H156.8V19.6H152.2V17.6H156.8V15.5Z" fill="white"/>
</svg>
